<?xml version="1.0" encoding="UTF-8" standalone="no"?>
<!-- Created with Inkscape (http://www.inkscape.org/) -->

<svg
   width="512"
   height="512"
   viewBox="0 0 512 512"
   version="1.1"
   id="svg1"
   xml:space="preserve"
   inkscape:version="1.3 (0e150ed6c4, 2023-07-21)"
   sodipodi:docname="linux_fox.svg"
   inkscape:export-filename="linux_fox.png"
   inkscape:export-xdpi="96"
   inkscape:export-ydpi="96"
   xmlns:inkscape="http://www.inkscape.org/namespaces/inkscape"
   xmlns:sodipodi="http://sodipodi.sourceforge.net/DTD/sodipodi-0.dtd"
   xmlns:xlink="http://www.w3.org/1999/xlink"
   xmlns="http://www.w3.org/2000/svg"
   xmlns:svg="http://www.w3.org/2000/svg"><sodipodi:namedview
     id="namedview1"
     pagecolor="#505050"
     bordercolor="#eeeeee"
     borderopacity="1"
     inkscape:showpageshadow="0"
     inkscape:pageopacity="0"
     inkscape:pagecheckerboard="0"
     inkscape:deskcolor="#505050"
     inkscape:document-units="px"
     inkscape:zoom="1.2732036"
     inkscape:cx="231.30629"
     inkscape:cy="260.36684"
     inkscape:window-width="1816"
     inkscape:window-height="942"
     inkscape:window-x="0"
     inkscape:window-y="0"
     inkscape:window-maximized="1"
     inkscape:current-layer="g37"
     inkscape:export-bgcolor="#585858ff" /><defs
     id="defs1"><linearGradient
       id="linearGradient37"
       inkscape:collect="always"><stop
         style="stop-color:#5bcefa;stop-opacity:1;"
         offset="0"
         id="stop37" /><stop
         style="stop-color:#5bcefa;stop-opacity:1;"
         offset="0.2"
         id="stop43" /><stop
         style="stop-color:#f5a9b8;stop-opacity:1;"
         offset="0.2"
         id="stop39" /><stop
         style="stop-color:#f5a9b8;stop-opacity:1;"
         offset="0.40000001"
         id="stop45" /><stop
         style="stop-color:#ffffff;stop-opacity:1;"
         offset="0.40000001"
         id="stop41" /><stop
         style="stop-color:#ffffff;stop-opacity:1;"
         offset="0.59918934"
         id="stop47" /><stop
         style="stop-color:#f5a9b8;stop-opacity:1;"
         offset="0.60000002"
         id="stop42" /><stop
         style="stop-color:#f5a9b8;stop-opacity:1;"
         offset="0.80000001"
         id="stop46" /><stop
         style="stop-color:#5bcefa;stop-opacity:1;"
         offset="0.80000001"
         id="stop44" /><stop
         style="stop-color:#5bcefa;stop-opacity:1;"
         offset="1"
         id="stop38" /></linearGradient><inkscape:path-effect
       effect="powerstroke"
       id="path-effect16"
       is_visible="true"
       lpeversion="1.3"
       scale_width="1"
       interpolator_type="CentripetalCatmullRom"
       interpolator_beta="0.2"
       start_linecap_type="zerowidth"
       end_linecap_type="zerowidth"
       offset_points="0,2.7374706 | 0.48313404,2.0440749 | 0.8705292,3.0573821"
       linejoin_type="round"
       miter_limit="4"
       not_jump="false"
       sort_points="true"
       message="&lt;b&gt;Ctrl + click&lt;/b&gt; on existing node and move it" /><inkscape:path-effect
       effect="powerstroke"
       id="path-effect15"
       is_visible="true"
       lpeversion="1.3"
       scale_width="1"
       interpolator_type="CentripetalCatmullRom"
       interpolator_beta="0.2"
       start_linecap_type="zerowidth"
       end_linecap_type="zerowidth"
       offset_points="0.10200011,8.4307968 | 0.51980878,11.665166 | 0.7738481,7.0719666"
       linejoin_type="round"
       miter_limit="4"
       not_jump="false"
       sort_points="true"
       message="&lt;b&gt;Ctrl + click&lt;/b&gt; on existing node and move it" /><inkscape:path-effect
       effect="powerstroke"
       id="path-effect14"
       is_visible="true"
       lpeversion="1.3"
       scale_width="1"
       interpolator_type="CentripetalCatmullRom"
       interpolator_beta="0.2"
       start_linecap_type="zerowidth"
       end_linecap_type="zerowidth"
       offset_points="0.22787347,1.2366845 | 0.5,2.5 | 0.90118201,3.1056896"
       linejoin_type="round"
       miter_limit="4"
       not_jump="false"
       sort_points="true"
       message="&lt;b&gt;Ctrl + click&lt;/b&gt; on existing node and move it" /><inkscape:path-effect
       effect="powerstroke"
       id="path-effect13"
       is_visible="true"
       lpeversion="1.3"
       scale_width="1"
       interpolator_type="CentripetalCatmullRom"
       interpolator_beta="0.2"
       start_linecap_type="zerowidth"
       end_linecap_type="zerowidth"
       offset_points="0,10.974784 | 0.36306297,14.601254 | 0.9006301,8.0203609"
       linejoin_type="round"
       miter_limit="4"
       not_jump="false"
       sort_points="true"
       message="&lt;b&gt;Ctrl + click&lt;/b&gt; on existing node and move it" /><inkscape:path-effect
       effect="powerstroke"
       id="path-effect12"
       is_visible="true"
       lpeversion="1.3"
       scale_width="1"
       interpolator_type="CentripetalCatmullRom"
       interpolator_beta="0.2"
       start_linecap_type="zerowidth"
       end_linecap_type="zerowidth"
       offset_points="0.052268063,9.8672009 | 1.316065,60.862421 | 1.9656354,50.53259"
       linejoin_type="round"
       miter_limit="4"
       not_jump="false"
       sort_points="true"
       message="&lt;b&gt;Ctrl + click&lt;/b&gt; on existing node and move it" /><inkscape:path-effect
       effect="powerstroke"
       id="path-effect11"
       is_visible="true"
       lpeversion="1.3"
       scale_width="1"
       interpolator_type="CentripetalCatmullRom"
       interpolator_beta="0.2"
       start_linecap_type="zerowidth"
       end_linecap_type="zerowidth"
       offset_points="0.066945398,0.28484713 | 2.0311817,0.35019895 | 3.7165729,0.62328544"
       linejoin_type="round"
       miter_limit="4"
       not_jump="false"
       sort_points="true"
       message="&lt;b&gt;Ctrl + click&lt;/b&gt; on existing node and move it" /><inkscape:path-effect
       effect="powerstroke"
       id="path-effect8"
       is_visible="true"
       lpeversion="1.3"
       scale_width="1"
       interpolator_type="CentripetalCatmullRom"
       interpolator_beta="0.2"
       start_linecap_type="zerowidth"
       end_linecap_type="zerowidth"
       offset_points="0.2,0.050000001 | 0.99571442,0.33279579 | 1.7831482,0.3051047"
       linejoin_type="round"
       miter_limit="4"
       not_jump="false"
       sort_points="true"
       message="&lt;b&gt;Ctrl + click&lt;/b&gt; on existing node and move it" /><inkscape:path-effect
       effect="powerstroke"
       id="path-effect5"
       is_visible="true"
       lpeversion="1.3"
       scale_width="1"
       interpolator_type="CentripetalCatmullRom"
       interpolator_beta="0.2"
       start_linecap_type="zerowidth"
       end_linecap_type="zerowidth"
       offset_points="0.76204497,1.8459652 | 2,1 | 3.4611013,1.3819787"
       linejoin_type="round"
       miter_limit="4"
       not_jump="false"
       sort_points="true"
       message="&lt;b&gt;Ctrl + click&lt;/b&gt; on existing node and move it" /><inkscape:path-effect
       effect="powerstroke"
       id="path-effect4"
       is_visible="true"
       lpeversion="1.3"
       scale_width="1"
       interpolator_type="CentripetalCatmullRom"
       interpolator_beta="0.2"
       start_linecap_type="zerowidth"
       end_linecap_type="zerowidth"
       offset_points="0.038194927,0.8071452 | 0.86928374,0.51151709 | 2.7430883,0.83798211"
       linejoin_type="round"
       miter_limit="4"
       not_jump="false"
       sort_points="true"
       message="&lt;b&gt;Ctrl + click&lt;/b&gt; on existing node and move it" /><inkscape:path-effect
       effect="powerstroke"
       id="path-effect3"
       is_visible="true"
       lpeversion="1.3"
       scale_width="1"
       interpolator_type="CentripetalCatmullRom"
       interpolator_beta="0.2"
       start_linecap_type="zerowidth"
       end_linecap_type="zerowidth"
       offset_points="0.33335017,0.97808042 | 0.69839519,1.7442455 | 0.94469064,1.4336338"
       linejoin_type="round"
       miter_limit="4"
       not_jump="false"
       sort_points="true"
       message="&lt;b&gt;Ctrl + click&lt;/b&gt; on existing node and move it" /><inkscape:path-effect
       effect="powerstroke"
       id="path-effect2"
       is_visible="true"
       lpeversion="1.3"
       scale_width="1"
       interpolator_type="CentripetalCatmullRom"
       interpolator_beta="0.36708861"
       start_linecap_type="zerowidth"
       end_linecap_type="zerowidth"
       offset_points="0.29290407,16.429601 | 0.70551708,19.075972 | 1.1951881,12.058165"
       linejoin_type="round"
       miter_limit="4"
       not_jump="false"
       sort_points="true"
       message="&lt;b&gt;Ctrl + click&lt;/b&gt; on existing node and move it" /><inkscape:path-effect
       effect="powerstroke"
       id="path-effect3-7"
       is_visible="true"
       lpeversion="1.3"
       scale_width="1"
       interpolator_type="CentripetalCatmullRom"
       interpolator_beta="0.2"
       start_linecap_type="zerowidth"
       end_linecap_type="zerowidth"
       offset_points="0.33335017,0.97808042 | 0.69839519,1.7442455 | 0.94469064,1.4336338"
       linejoin_type="round"
       miter_limit="4"
       not_jump="false"
       sort_points="true"
       message="&lt;b&gt;Ctrl + click&lt;/b&gt; on existing node and move it" /><inkscape:path-effect
       effect="powerstroke"
       id="path-effect5-2"
       is_visible="true"
       lpeversion="1.3"
       scale_width="1"
       interpolator_type="CentripetalCatmullRom"
       interpolator_beta="0.2"
       start_linecap_type="zerowidth"
       end_linecap_type="zerowidth"
       offset_points="0.420462,0.56007808 | 2,1 | 3.704545,0.45682373"
       linejoin_type="round"
       miter_limit="4"
       not_jump="false"
       sort_points="true"
       message="&lt;b&gt;Ctrl + click&lt;/b&gt; on existing node and move it" /><inkscape:path-effect
       effect="powerstroke"
       id="path-effect5-6"
       is_visible="true"
       lpeversion="1.3"
       scale_width="1"
       interpolator_type="CentripetalCatmullRom"
       interpolator_beta="0.2"
       start_linecap_type="zerowidth"
       end_linecap_type="zerowidth"
       offset_points="0.87361938,1.8205415 | 2.043378,2.9204224 | 3.2145303,1.7655202"
       linejoin_type="round"
       miter_limit="4"
       not_jump="false"
       sort_points="true"
       message="&lt;b&gt;Ctrl + click&lt;/b&gt; on existing node and move it" /><inkscape:path-effect
       effect="powerstroke"
       id="path-effect14-9"
       is_visible="true"
       lpeversion="1.3"
       scale_width="1"
       interpolator_type="CentripetalCatmullRom"
       interpolator_beta="0.2"
       start_linecap_type="zerowidth"
       end_linecap_type="zerowidth"
       offset_points="0.22787347,1.2366845 | 0.5,2.5 | 0.90118201,3.1056896"
       linejoin_type="round"
       miter_limit="4"
       not_jump="false"
       sort_points="true"
       message="&lt;b&gt;Ctrl + click&lt;/b&gt; on existing node and move it" /><inkscape:path-effect
       effect="powerstroke"
       id="path-effect14-9-7"
       is_visible="true"
       lpeversion="1.3"
       scale_width="1"
       interpolator_type="CentripetalCatmullRom"
       interpolator_beta="0.2"
       start_linecap_type="zerowidth"
       end_linecap_type="zerowidth"
       offset_points="0.22787347,1.2366845 | 0.5,2.5 | 0.90118201,3.1056896"
       linejoin_type="round"
       miter_limit="4"
       not_jump="false"
       sort_points="true"
       message="&lt;b&gt;Ctrl + click&lt;/b&gt; on existing node and move it" /><inkscape:path-effect
       effect="powerstroke"
       id="path-effect14-8"
       is_visible="true"
       lpeversion="1.3"
       scale_width="1"
       interpolator_type="CentripetalCatmullRom"
       interpolator_beta="0.2"
       start_linecap_type="zerowidth"
       end_linecap_type="zerowidth"
       offset_points="0.22787347,1.2366845 | 0.5,2.5 | 0.90118201,3.1056896"
       linejoin_type="round"
       miter_limit="4"
       not_jump="false"
       sort_points="true"
       message="&lt;b&gt;Ctrl + click&lt;/b&gt; on existing node and move it" /><inkscape:path-effect
       effect="powerstroke"
       id="path-effect14-8-1"
       is_visible="true"
       lpeversion="1.3"
       scale_width="1"
       interpolator_type="CentripetalCatmullRom"
       interpolator_beta="0.2"
       start_linecap_type="zerowidth"
       end_linecap_type="zerowidth"
       offset_points="0.22787347,1.2366845 | 0.5,2.5 | 0.90118201,3.1056896"
       linejoin_type="round"
       miter_limit="4"
       not_jump="false"
       sort_points="true"
       message="&lt;b&gt;Ctrl + click&lt;/b&gt; on existing node and move it" /><inkscape:path-effect
       effect="powerstroke"
       id="path-effect14-8-1-0"
       is_visible="true"
       lpeversion="1.3"
       scale_width="1"
       interpolator_type="CentripetalCatmullRom"
       interpolator_beta="0.2"
       start_linecap_type="zerowidth"
       end_linecap_type="zerowidth"
       offset_points="0.22787347,1.2366845 | 0.5,2.5 | 0.90118201,3.1056896"
       linejoin_type="round"
       miter_limit="4"
       not_jump="false"
       sort_points="true"
       message="&lt;b&gt;Ctrl + click&lt;/b&gt; on existing node and move it" /><inkscape:path-effect
       effect="powerstroke"
       id="path-effect14-8-6"
       is_visible="true"
       lpeversion="1.3"
       scale_width="1"
       interpolator_type="CentripetalCatmullRom"
       interpolator_beta="0.2"
       start_linecap_type="zerowidth"
       end_linecap_type="zerowidth"
       offset_points="0.22787347,1.2366845 | 0.5,2.5 | 0.90118201,3.1056896"
       linejoin_type="round"
       miter_limit="4"
       not_jump="false"
       sort_points="true"
       message="&lt;b&gt;Ctrl + click&lt;/b&gt; on existing node and move it" /><inkscape:path-effect
       effect="powerstroke"
       id="path-effect14-8-1-6"
       is_visible="true"
       lpeversion="1.3"
       scale_width="1"
       interpolator_type="CentripetalCatmullRom"
       interpolator_beta="0.2"
       start_linecap_type="zerowidth"
       end_linecap_type="zerowidth"
       offset_points="0.22787347,1.2366845 | 0.5,2.5 | 0.90118201,3.1056896"
       linejoin_type="round"
       miter_limit="4"
       not_jump="false"
       sort_points="true"
       message="&lt;b&gt;Ctrl + click&lt;/b&gt; on existing node and move it" /><inkscape:path-effect
       effect="powerstroke"
       id="path-effect14-8-5"
       is_visible="true"
       lpeversion="1.3"
       scale_width="1"
       interpolator_type="CentripetalCatmullRom"
       interpolator_beta="0.2"
       start_linecap_type="zerowidth"
       end_linecap_type="zerowidth"
       offset_points="0.22787347,1.2366845 | 0.5,2.5 | 0.90118201,3.1056896"
       linejoin_type="round"
       miter_limit="4"
       not_jump="false"
       sort_points="true"
       message="&lt;b&gt;Ctrl + click&lt;/b&gt; on existing node and move it" /><linearGradient
       inkscape:collect="always"
       xlink:href="#linearGradient37"
       id="linearGradient54"
       x1="287.96982"
       y1="5.0977063"
       x2="287.96982"
       y2="515.29102"
       gradientUnits="userSpaceOnUse"
       gradientTransform="matrix(0.91027044,0,0,0.91027044,21.110395,22.259167)" /></defs><g
     inkscape:label="Layer 1"
     inkscape:groupmode="layer"
     id="layer1"
     style="display:none;opacity:1"><path
       id="path1"
       style="fill:#4ffe74;fill-opacity:1;fill-rule:nonzero;stroke:none;stroke-width:211.345;stroke-linecap:butt;stroke-linejoin:miter;stroke-dasharray:none;stroke-opacity:1"
       d="m 9.5503019,277.90388 c 1.5843761,13.4847 31.4677541,41.87479 77.8509201,96.65347 33.787248,39.90422 72.871128,89.31701 148.495068,120.05675 84.74497,35.70816 179.0809,-12.21643 217.26511,-64.75815 14.73992,-20.2823 42.9714,-65.16222 49.6328,-119.13 -5.34105,7.35565 -15.2763,18.93353 -30.62993,32.91482 0.64958,-10.1883 0.88637,-18.83576 1.51825,-24.558 -12.21252,7.40149 -57.19037,26.3718 -105.10488,32.94196 C 285.10337,363.47095 243.03747,329.6184 165.15352,292.81881 64.051922,244.71389 7.9093719,263.94054 9.5503019,277.90388 Z"
       sodipodi:nodetypes="sssscccsss"
       inkscape:label="tail" /><path
       id="path4"
       style="fill:#4ffe74;fill-opacity:1;fill-rule:nonzero;stroke:none;stroke-width:13.0188;stroke-linecap:butt;stroke-linejoin:miter;stroke-dasharray:none;stroke-opacity:1"
       d="m 257.74433,127.38406 c 0.17318,-0.58063 1.81431,-14.93711 -0.13725,-25.43462 -2.75343,-14.810821 -53.58658,-91.475239 -70.56178,-91.462514 -10.5874,0.457808 -30.94729,45.335938 -34.97531,99.700734 -4.00637,54.07057 11.54842,86.61494 28.12285,89.91117 63.53709,-5.48712 128.82204,-1.87265 192.21807,-6.95445 1.50864,-0.36411 27.99493,-12.30887 35.08135,-52.16468 7.86376,-44.227793 0.74195,-98.736949 -4.12963,-101.383278 -12.19817,-6.626393 -66.82248,27.83835 -80.89108,50.147914 -7.6917,12.459464 -10.34585,27.219944 -13.12903,41.397764"
       sodipodi:nodetypes="cscssssssc"
       inkscape:label="ears" /><path
       id="path5"
       style="display:inline;fill:#4ffe74;fill-opacity:1;fill-rule:nonzero;stroke:none;stroke-width:14.8744;stroke-linecap:butt;stroke-linejoin:miter;stroke-dasharray:none;stroke-opacity:1"
       d="m 168.08689,218.6163 c -11.22916,6.20219 -23.23258,6.20181 -35.46943,4.16375 17.34909,19.49381 34.97946,39.31231 58.37281,51.49837 -4.43365,1.76097 -8.63268,7.43792 -15.97878,16.29165 15.60037,-4.27858 43.52619,2.85608 59.37902,6.62308 19.13663,4.54725 39.6722,37.48289 65.14795,32.39831 12.73192,-2.54112 18.46012,-25.06781 31.15385,-29.78225 12.82596,-4.7636 30.34034,-13.90818 43.66084,-11.94193 -5.41632,-5.48324 -7.33433,-11.90293 -13.4176,-15.18482 30.63359,-26.80696 42.27217,-47.56721 43.3478,-48.46256 -14.57588,2.49194 -23.5833,-0.49097 -35.1843,-8.51873 -2.92269,-26.75919 -17.17213,-92.64278 -91.79283,-92.21665 -75.86369,0.43314 -100.98312,70.27402 -109.21933,95.13178 z"
       sodipodi:nodetypes="ccccsssccccsc"
       inkscape:label="head" /><path
       id="path6"
       style="display:inline;fill:#ffffff;fill-opacity:1;stroke:none;stroke-width:13.0188;stroke-linecap:butt;stroke-linejoin:miter;stroke-dasharray:none;stroke-opacity:1"
       inkscape:label="nose"
       d="m 305.4126,254.78598 c 2.1394,5.71494 9.80234,27.08098 8.1878,35.81432 -10.15025,-3.05577 -35.73367,-2.56106 -35.71276,2.64444 0.0455,11.8627 15.44259,19.23526 21.09204,19.2613 5.79559,0.0259 17.31704,-7.61159 18.65097,-17.44322 1.33044,-14.25566 -6.3148,-27.68218 -12.21798,-40.27696 z"
       sodipodi:nodetypes="ccccscc" /><path
       id="path9-8"
       style="display:inline;opacity:1;fill:#ffffff;fill-opacity:1;fill-rule:nonzero;stroke:none;stroke-width:6.84021;stroke-linecap:butt;stroke-linejoin:miter;stroke-dasharray:none;stroke-opacity:1"
       d="m 246.92841,151.39928 c -22.5896,0.14329 -40.68509,18.80048 -40.48526,41.38965 0.19982,22.58839 18.62021,40.79291 41.20914,40.66696 14.85936,-0.0829 28.49805,-8.244 35.65531,-21.26633 12.27537,-10.50637 27.24103,-9.03202 40.17476,-1.01007 7.37379,12.59937 20.88692,20.35493 35.48536,20.30538 26.16928,-0.0888 41.10151,-22.32444 40.84266,-41.75276 -0.30094,-22.58724 -18.97888,-40.60073 -41.56614,-40.3019 -28.9741,0.38333 -45.89951,28.53539 -38.80994,52.55858 -7.6074,-2.23563 -22.84316,-2.81785 -32.21765,0.2662 7.08199,-27.61641 -15.74724,-51.01138 -40.28824,-50.85571 z"
       transform="rotate(4.2063913)"
       inkscape:label="glasses"
       sodipodi:nodetypes="sssccsssccs" /><path
       id="path12"
       style="fill:#ffffff;fill-opacity:1;fill-rule:nonzero;stroke:none;stroke-width:50.2192;stroke-linecap:butt;stroke-linejoin:miter;stroke-dasharray:none;stroke-opacity:1"
       inkscape:label="paws"
       d="m 221.88477,322.64258 c -30.53508,-0.66144 -16.86899,53.9838 7.0039,64.38867 6.11644,-6.30084 7.97206,-12.79418 6.28711,-19.39258 5.04556,9.13881 1.45075,17.69869 -0.53906,21.2461 4.02173,0.94111 7.68139,1.08073 10.98828,0.57617 5.4309,-5.44119 8.21731,-12.21766 6.36719,-19.82227 2.27154,3.98772 3.92544,9.78872 1.53711,17.09961 18.64511,-10.54972 20.56904,-45.62934 8.20312,-53.66797 -7.25565,-4.71665 -25.51369,-10.11707 -39.84765,-10.42773 z m 117.92382,13.47461 c -12.66219,13.63064 18.56468,51.83766 39.6543,52.84765 3.62284,-7.2721 3.43727,-14.80267 -0.80078,-21.7207 8.83179,7.20042 7.89958,17.55709 7.19922,21.32617 3.95771,-0.62006 7.27605,-1.86909 10.0332,-3.59179 2.90509,-6.14263 4.80088,-14.60616 -0.88476,-22.15235 3.62548,2.87618 7.28823,7.63652 7.80468,15.26758 10.91281,-17.19104 -0.44037,-48.88719 -14.39257,-51.47656 -9.41328,-1.74704 -35.54912,1.02643 -48.61329,9.5 z"
       sodipodi:nodetypes="sccccccsscccccccsc" /><path
       id="path14"
       style="fill:#ffffff;fill-opacity:1;fill-rule:nonzero;stroke:none;stroke-width:10.1165;stroke-linecap:butt;stroke-linejoin:miter;stroke-dasharray:none;stroke-opacity:1"
       d="m 260.33672,147.9839 c 8.93873,15.63901 26.6026,19.78767 25.25587,39.64498 12.96783,-13.06912 32.75979,-35.73615 27.89464,-56.95185 -12.56445,-42.659979 -74.30387,-19.70272 -53.15051,17.30687 z"
       sodipodi:nodetypes="scss"
       inkscape:label="hair" /></g><g
     inkscape:label="Layer 1 copy"
     inkscape:groupmode="layer"
     id="g37"
     style="display:inline;opacity:1"><path
       id="path52"
       style="display:inline;opacity:1;fill:none;fill-opacity:1;fill-rule:nonzero;stroke:url(#linearGradient54);stroke-width:18;stroke-linecap:butt;stroke-linejoin:miter;stroke-miterlimit:8;stroke-dasharray:none;stroke-opacity:1"
       inkscape:label="tail"
       d="m 191.37185,31.804562 c -9.63738,0.416729 -28.16976,41.268461 -31.83635,90.755028 -3.31515,44.74192 8.09023,73.21663 21.5247,80.29403 -3.13482,7.25591 -5.39656,13.72951 -6.94615,18.40632 -10.22155,5.64565 -21.14733,5.64381 -32.28615,3.78864 15.79233,17.7446 31.84103,35.78634 53.13525,46.87893 -4.0358,1.60296 -7.85784,6.76995 -14.54476,14.82922 14.20052,-3.89464 39.62053,2.59978 54.05085,6.02877 17.41949,4.13921 36.11294,34.11967 59.3027,29.49134 11.58948,-2.3131 16.80236,-22.81936 28.35707,-27.11077 11.67505,-4.33615 27.61909,-12.65973 39.74432,-10.86991 -4.93031,-4.99123 -6.67657,-10.83555 -12.21398,-13.82295 27.8848,-24.40153 38.47897,-43.29755 39.45809,-44.11257 -7.20731,1.23219 -12.90898,0.94412 -18.31564,-0.70225 0.28289,-1.48988 0.50645,-2.98096 0.59559,-4.46246 0.56248,-9.3489 -2.42655,-18.06935 -7.75863,-24.93465 7.15893,-4.20267 23.27417,-16.84438 28.39973,-45.67176 7.15813,-40.25917 0.67603,-89.878685 -3.75843,-92.287555 -11.10361,-6.031797 -60.82791,25.340942 -73.63412,45.648645 -5.82172,9.43036 -8.43358,20.30015 -10.61568,31.11631 -5.39711,-10.6606 -14.95609,-15.04115 -24.28928,-14.81856 -10.01091,0.23877 -19.69672,5.77028 -23.69192,14.41321 0.39536,-4.40427 0.8577,-12.58708 -0.44625,-19.60104 C 253.09645,101.5787 206.82384,31.792978 191.37185,31.804562 Z M 65.553639,260.82825 c -24.093192,0.4906 -36.496294,8.04378 -35.74945,14.39899 1.442208,12.27469 28.643058,38.11646 70.864201,87.97977 30.75546,36.32356 66.3335,81.30258 135.17159,109.28401 77.1407,32.50402 163.0126,-11.12004 197.77048,-58.94712 13.41728,-18.46234 39.11563,-59.31434 45.17928,-108.43953 -4.86178,6.69563 -13.90642,17.23398 -27.88236,29.9607 0.59129,-9.27407 0.80622,-17.14617 1.38141,-22.35496 -8.27257,5.01365 -33.08223,15.84935 -63.19801,23.53547 -3.07211,-8.64175 -8.46684,-15.57319 -14.41143,-16.67644 -2.14216,-0.39757 -5.23622,-0.53715 -8.85736,-0.40357 -10.86344,0.4007 -26.47495,3.26622 -35.39388,9.05114 -3.61218,3.88845 -3.29774,9.97503 -0.57603,16.5271 -24.35755,0.26899 -44.96202,-4.22819 -65.10034,-11.59884 -1.19559,-3.37958 -2.97535,-6.12942 -5.39406,-7.70174 -6.05168,-3.93398 -20.48511,-8.34613 -32.9013,-9.28227 -16.7774,-8.31779 -34.46899,-17.65199 -55.01091,-27.35789 C 125.43066,266.90886 89.646829,260.33764 65.553639,260.82825 Z" /><path
       id="path31"
       style="fill:#000000;fill-opacity:1;fill-rule:nonzero;stroke:none;stroke-width:192.381;stroke-linecap:butt;stroke-linejoin:miter;stroke-dasharray:none;stroke-opacity:1"
       inkscape:label="tail"
       d="m 191.37185,31.804562 c -9.63738,0.416729 -28.16976,41.268411 -31.83635,90.755028 -3.31516,44.74196 8.09022,73.21662 21.5247,80.29403 -3.13482,7.25591 -5.39656,13.72951 -6.94615,18.40632 -10.22156,5.64566 -21.14732,5.64382 -32.28615,3.78864 15.79235,17.74462 31.841,35.78633 53.13525,46.87893 -4.03581,1.60296 -7.85783,6.76994 -14.54476,14.82922 14.20053,-3.89465 39.62051,2.59978 54.05085,6.02877 17.4195,4.13922 36.11291,34.11968 59.3027,29.49134 11.58948,-2.3131 16.80235,-22.81936 28.35707,-27.11077 11.67507,-4.33616 27.61908,-12.65973 39.74432,-10.86991 -4.93031,-4.99123 -6.67656,-10.83555 -12.21398,-13.82295 27.88483,-24.40156 38.47897,-43.29755 39.45809,-44.11257 -13.26798,2.26834 -21.46655,-0.44765 -32.02658,-7.75507 -0.57978,-5.30824 -1.70707,-12.35141 -3.7282,-20.04906 2.24816,-0.15684 4.49852,-0.30377 6.74169,-0.48358 1.37326,-0.33144 25.48358,-11.20388 31.93414,-47.48341 7.15814,-40.25921 0.67603,-89.878683 -3.75843,-92.287555 -11.10362,-6.031803 -60.8279,25.340922 -73.63412,45.648645 -6.54959,10.60941 -9.07188,23.04343 -11.44594,35.16986 -8.4992,-2.8669 -18.29675,-4.52205 -29.66557,-4.45712 -6.23061,0.0356 -12.07305,0.60168 -17.57426,1.58941 0.40565,-3.88394 1.07044,-13.51205 -0.35736,-21.19223 -2.50636,-13.48184 -48.77895,-83.267552 -64.23096,-83.255968 z M 65.553639,260.82825 c -24.093216,0.4906 -36.496294,8.04378 -35.74945,14.39899 1.44221,12.2747 28.643016,38.11641 70.864201,87.97977 30.75549,36.32359 66.33343,81.30256 135.17159,109.28401 77.14077,32.50405 163.01256,-11.11999 197.77048,-58.94712 13.4173,-18.46236 39.11562,-59.3143 45.17928,-108.43953 -4.86179,6.69563 -13.90642,17.23396 -27.88236,29.9607 0.59129,-9.27409 0.80622,-17.14617 1.38141,-22.35496 -11.11669,6.73735 -52.05751,24.00675 -95.67263,29.98737 C 280.63208,353.11662 242.34085,322.30061 171.44547,288.80307 125.43062,266.90884 89.646853,260.33764 65.553639,260.82825 Z" /><path
       id="path34"
       style="display:inline;fill:#ffffff;fill-opacity:1;stroke:none;stroke-width:11.8508;stroke-linecap:butt;stroke-linejoin:miter;stroke-dasharray:none;stroke-opacity:1"
       inkscape:label="nose"
       d="m 279.74098,120.24836 c -17.10151,0.40788 -33.38815,16.18756 -21.65448,36.71662 8.13665,14.23571 24.21555,18.01174 22.98967,36.08724 11.80421,-11.89642 29.82015,-32.52897 25.39156,-51.84098 -4.4676,-15.16877 -15.76424,-21.22433 -26.72675,-20.96288 z m -46.48779,55.86073 c -19.69071,-0.31096 -36.31664,15.07226 -37.602,34.95119 -1.32677,20.51948 14.18014,38.27578 34.69518,39.66966 13.49512,0.91687 26.4215,-5.58131 33.78845,-16.92534 11.84529,-8.71827 25.33296,-6.3806 36.53882,1.76542 5.85283,11.93026 17.6025,19.87316 30.85852,20.80289 23.76287,1.66665 38.80303,-17.52233 39.86523,-35.17698 1.2349,-20.52518 -14.51857,-38.12527 -35.04363,-39.36208 -26.32879,-1.58655 -43.57367,22.84036 -38.74161,45.12238 -6.75687,-2.53747 -20.54931,-4.08327 -29.26555,-1.90943 8.27304,-24.59781 -10.8895,-47.36047 -33.17865,-48.85769 -0.64115,-0.0431 -1.27959,-0.07 -1.91476,-0.08 z m 65.86482,78.07348 c 1.94743,5.20213 8.9225,24.65114 7.45284,32.60083 -9.23947,-2.78157 -32.52743,-2.33116 -32.50839,2.40724 0.0414,10.79826 14.05849,17.50967 19.20102,17.53338 5.27554,0.0236 15.76266,-6.92875 16.97689,-15.87818 1.21106,-12.9765 -5.74888,-25.19863 -11.12236,-36.66327 z m -76.03247,61.7686 c -27.79515,-0.60209 -15.35532,49.13987 6.37544,58.61111 5.56762,-5.73546 7.25673,-11.64617 5.72297,-17.6525 4.59283,8.31878 1.32058,16.1106 -0.49069,19.3397 3.66085,0.85666 6.99214,0.98376 10.00231,0.52447 4.94358,-4.95295 7.47997,-11.12138 5.79586,-18.04363 2.06772,3.62991 3.57321,8.9104 1.39919,15.56527 16.97207,-9.60309 18.72338,-41.53504 7.46706,-48.85236 -6.6046,-4.29342 -23.22438,-9.20927 -36.27214,-9.49206 z m 142.73645,3.2144 c -10.86345,0.4007 -26.47494,3.26622 -35.39388,9.05114 -11.526,12.40755 16.89889,47.18629 36.09613,48.10566 3.29777,-6.61957 3.12885,-13.47445 -0.72892,-19.77172 8.03931,6.55432 7.19075,15.98171 6.55323,19.41259 3.60258,-0.56443 6.62318,-1.70139 9.13293,-3.2695 2.64442,-5.59146 4.37009,-13.29557 -0.80537,-20.16463 3.30016,2.6181 6.63426,6.9513 7.10437,13.89762 9.9336,-15.64847 -0.40088,-44.50057 -13.10113,-46.85759 -2.14216,-0.39757 -5.23622,-0.53715 -8.85736,-0.40357 z" /></g></svg>
